<svg xmlns="http://www.w3.org/2000/svg" xmlns:xlink="http://www.w3.org/1999/xlink" width="160" zoomAndPan="magnify" viewBox="0 0 120 44.999999" height="60" preserveAspectRatio="xMidYMid meet" version="1.0"><defs><g/><clipPath id="id1"><path d="M 34.351562 37 L 54 37 L 54 39 L 34.351562 39 Z M 34.351562 37 " clip-rule="nonzero"/></clipPath><clipPath id="id2"><path d="M 59 36.457031 L 63 36.457031 L 63 39 L 59 39 Z M 59 36.457031 " clip-rule="nonzero"/></clipPath><clipPath id="id3"><path d="M 53 36.457031 L 58 36.457031 L 58 39 L 53 39 Z M 53 36.457031 " clip-rule="nonzero"/></clipPath><clipPath id="id4"><path d="M 58 37 L 64 37 L 64 39.457031 L 58 39.457031 Z M 58 37 " clip-rule="nonzero"/></clipPath><clipPath id="id5"><path d="M 53 37 L 58 37 L 58 39.457031 L 53 39.457031 Z M 53 37 " clip-rule="nonzero"/></clipPath><clipPath id="id6"><path d="M 63 36.457031 L 79 36.457031 L 79 38 L 63 38 Z M 63 36.457031 " clip-rule="nonzero"/></clipPath><clipPath id="id7"><path d="M 37 36.457031 L 54 36.457031 L 54 38 L 37 38 Z M 37 36.457031 " clip-rule="nonzero"/></clipPath><clipPath id="id8"><path d="M 57 36.457031 L 60 36.457031 L 60 39.457031 L 57 39.457031 Z M 57 36.457031 " clip-rule="nonzero"/></clipPath></defs><g fill="#800080" fill-opacity="1"><g transform="translate(1.950001, 23.994868)"><g><path d="M 11.453125 -14.125 L 11.203125 -10.859375 L 8.25 -11 L 7.984375 -11 L 7.875 -4.6875 L 8.0625 0 L 3.59375 0 L 3.8125 -4.234375 L 3.703125 -11 L 3.40625 -11 L 0.453125 -10.859375 L 0.171875 -11.171875 L 0.421875 -14.4375 L 11.203125 -14.4375 Z M 11.453125 -14.125 "/></g></g></g><g fill="#800080" fill-opacity="1"><g transform="translate(13.523572, 23.994868)"><g><path d="M 11.6875 -2.671875 L 11.3125 -0.453125 C 10.59375 0.015625 9.847656 0.238281 9.078125 0.21875 C 8.210938 0.0390625 7.585938 -0.582031 7.203125 -1.65625 L 6.9375 -1.65625 C 6.519531 -1.1875 6.109375 -0.804688 5.703125 -0.515625 C 5.304688 -0.234375 4.863281 -0.015625 4.375 0.140625 C 3.269531 0.140625 2.414062 -0.113281 1.8125 -0.625 C 1.21875 -1.132812 0.921875 -1.863281 0.921875 -2.8125 L 0.984375 -5.109375 L 0.84375 -10.28125 L 4.96875 -10.578125 L 4.96875 -4.53125 C 4.96875 -4.082031 5.039062 -3.765625 5.1875 -3.578125 C 5.34375 -3.390625 5.578125 -3.296875 5.890625 -3.296875 C 6.085938 -3.296875 6.253906 -3.320312 6.390625 -3.375 C 6.535156 -3.425781 6.6875 -3.515625 6.84375 -3.640625 L 6.84375 -10.28125 L 10.984375 -10.578125 L 10.734375 -3.296875 C 10.734375 -3.140625 10.757812 -3.019531 10.8125 -2.9375 C 10.863281 -2.863281 10.941406 -2.828125 11.046875 -2.828125 C 11.148438 -2.828125 11.273438 -2.851562 11.421875 -2.90625 Z M 11.6875 -2.671875 "/></g></g></g><g fill="#800080" fill-opacity="1"><g transform="translate(25.476237, 23.994868)"><g><path d="M 6.25 -3.171875 C 6.632812 -3.171875 7.082031 -3.257812 7.59375 -3.4375 L 7.859375 -3.09375 L 7.453125 -0.6875 C 7.140625 -0.5 6.765625 -0.328125 6.328125 -0.171875 C 5.898438 -0.015625 5.488281 0.09375 5.09375 0.15625 C 3.914062 0.15625 2.988281 -0.109375 2.3125 -0.640625 C 1.644531 -1.179688 1.3125 -1.894531 1.3125 -2.78125 L 1.453125 -5.109375 L 1.421875 -7.90625 L 0.046875 -7.90625 L -0.0625 -8.125 L 0.109375 -10.421875 L 1.421875 -10.421875 L 1.40625 -12.3125 L 5.4375 -13.390625 L 5.71875 -13.140625 L 5.59375 -10.421875 L 7.78125 -10.421875 L 7.90625 -10.203125 L 7.71875 -7.90625 L 5.515625 -7.90625 L 5.375 -4.125 C 5.375 -3.769531 5.4375 -3.519531 5.5625 -3.375 C 5.6875 -3.238281 5.914062 -3.171875 6.25 -3.171875 Z M 6.25 -3.171875 "/></g></g></g><g fill="#800080" fill-opacity="1"><g transform="translate(33.526442, 23.994868)"><g><path d="M 5.734375 -10.796875 C 7.398438 -10.796875 8.65625 -10.347656 9.5 -9.453125 C 10.351562 -8.566406 10.78125 -7.253906 10.78125 -5.515625 C 10.78125 -3.609375 10.320312 -2.164062 9.40625 -1.1875 C 8.488281 -0.21875 7.140625 0.265625 5.359375 0.265625 C 3.691406 0.265625 2.429688 -0.175781 1.578125 -1.0625 C 0.734375 -1.945312 0.3125 -3.25 0.3125 -4.96875 C 0.3125 -6.894531 0.769531 -8.347656 1.6875 -9.328125 C 2.601562 -10.304688 3.953125 -10.796875 5.734375 -10.796875 Z M 5.421875 -7.875 C 5.117188 -7.875 4.894531 -7.816406 4.75 -7.703125 C 4.601562 -7.597656 4.503906 -7.394531 4.453125 -7.09375 C 4.398438 -6.800781 4.375 -6.347656 4.375 -5.734375 C 4.375 -4.828125 4.40625 -4.15625 4.46875 -3.71875 C 4.539062 -3.28125 4.664062 -2.972656 4.84375 -2.796875 C 5.019531 -2.628906 5.296875 -2.546875 5.671875 -2.546875 C 5.960938 -2.546875 6.175781 -2.597656 6.3125 -2.703125 C 6.457031 -2.816406 6.554688 -3.023438 6.609375 -3.328125 C 6.660156 -3.640625 6.6875 -4.097656 6.6875 -4.703125 C 6.6875 -5.597656 6.65625 -6.265625 6.59375 -6.703125 C 6.53125 -7.140625 6.40625 -7.441406 6.21875 -7.609375 C 6.039062 -7.785156 5.773438 -7.875 5.421875 -7.875 Z M 5.421875 -7.875 "/></g></g></g><g fill="#800080" fill-opacity="1"><g transform="translate(44.609416, 23.994868)"><g><path d="M 7.828125 -10.546875 C 8.023438 -10.546875 8.195312 -10.535156 8.34375 -10.515625 L 8.34375 -6.609375 L 7.921875 -6.46875 C 7.722656 -6.59375 7.457031 -6.65625 7.125 -6.65625 C 6.789062 -6.65625 6.441406 -6.578125 6.078125 -6.421875 C 5.710938 -6.273438 5.375 -6.066406 5.0625 -5.796875 L 5.0625 -4.6875 L 5.25 0 L 0.890625 0 L 1.09375 -4.234375 L 0.9375 -10.28125 L 5.0625 -10.578125 L 5.0625 -8.609375 L 5.265625 -8.609375 C 5.898438 -9.898438 6.753906 -10.546875 7.828125 -10.546875 Z M 7.828125 -10.546875 "/></g></g></g><g fill="#800080" fill-opacity="1"><g transform="translate(52.99412, 23.994868)"><g/></g></g><g fill="#800080" fill-opacity="1"><g transform="translate(56.004586, 23.994868)"><g><path d="M 5.796875 -11 L 5.734375 -8.40625 L 7.25 -8.40625 L 9.84375 -8.484375 L 10.078125 -8.171875 L 9.8125 -4.90625 L 6.9375 -4.96875 L 5.640625 -4.96875 L 5.640625 -4.6875 L 5.828125 0 L 1.34375 0 L 1.5625 -4.234375 L 1.34375 -14.4375 L 10.984375 -14.4375 L 11.21875 -14.125 L 10.9375 -10.859375 L 7.359375 -11 Z M 5.796875 -11 "/></g></g></g><g fill="#800080" fill-opacity="1"><g transform="translate(66.73077, 23.994868)"><g><path d="M 11.6875 -2.671875 L 11.3125 -0.453125 C 10.59375 0.015625 9.847656 0.238281 9.078125 0.21875 C 8.210938 0.0390625 7.585938 -0.582031 7.203125 -1.65625 L 6.9375 -1.65625 C 6.519531 -1.1875 6.109375 -0.804688 5.703125 -0.515625 C 5.304688 -0.234375 4.863281 -0.015625 4.375 0.140625 C 3.269531 0.140625 2.414062 -0.113281 1.8125 -0.625 C 1.21875 -1.132812 0.921875 -1.863281 0.921875 -2.8125 L 0.984375 -5.109375 L 0.84375 -10.28125 L 4.96875 -10.578125 L 4.96875 -4.53125 C 4.96875 -4.082031 5.039062 -3.765625 5.1875 -3.578125 C 5.34375 -3.390625 5.578125 -3.296875 5.890625 -3.296875 C 6.085938 -3.296875 6.253906 -3.320312 6.390625 -3.375 C 6.535156 -3.425781 6.6875 -3.515625 6.84375 -3.640625 L 6.84375 -10.28125 L 10.984375 -10.578125 L 10.734375 -3.296875 C 10.734375 -3.140625 10.757812 -3.019531 10.8125 -2.9375 C 10.863281 -2.863281 10.941406 -2.828125 11.046875 -2.828125 C 11.148438 -2.828125 11.273438 -2.851562 11.421875 -2.90625 Z M 11.6875 -2.671875 "/></g></g></g><g fill="#800080" fill-opacity="1"><g transform="translate(78.683434, 23.994868)"><g><path d="M 6.9375 0 L 7.15625 -5.890625 C 7.15625 -6.796875 6.804688 -7.25 6.109375 -7.25 C 5.765625 -7.25 5.414062 -7.144531 5.0625 -6.9375 L 5.0625 -4.6875 L 5.25 0 L 0.890625 0 L 1.09375 -4.234375 L 0.9375 -10.28125 L 5.0625 -10.578125 L 5.0625 -9.015625 L 5.21875 -9.015625 C 5.988281 -9.785156 6.859375 -10.335938 7.828125 -10.671875 C 8.941406 -10.671875 9.789062 -10.414062 10.375 -9.90625 C 10.96875 -9.394531 11.25 -8.664062 11.21875 -7.71875 L 11.140625 -4.6875 L 11.296875 0 Z M 6.9375 0 "/></g></g></g><g fill="#800080" fill-opacity="1"><g transform="translate(90.814499, 23.994868)"><g><path d="M 10.703125 -4.6875 L 10.734375 -3.328125 C 10.734375 -3.148438 10.753906 -3.019531 10.796875 -2.9375 C 10.835938 -2.863281 10.910156 -2.828125 11.015625 -2.828125 C 11.117188 -2.828125 11.25 -2.851562 11.40625 -2.90625 L 11.671875 -2.671875 L 11.296875 -0.453125 C 10.742188 -0.0546875 10.050781 0.164062 9.21875 0.21875 C 8.738281 0.1875 8.316406 0.0390625 7.953125 -0.21875 C 7.585938 -0.488281 7.300781 -0.863281 7.09375 -1.34375 L 6.9375 -1.34375 C 6.34375 -0.695312 5.644531 -0.179688 4.84375 0.203125 C 3.425781 0.203125 2.316406 -0.269531 1.515625 -1.21875 C 0.710938 -2.175781 0.3125 -3.472656 0.3125 -5.109375 C 0.3125 -6.941406 0.800781 -8.335938 1.78125 -9.296875 C 2.757812 -10.253906 4.109375 -10.734375 5.828125 -10.734375 C 6.046875 -10.734375 6.320312 -10.710938 6.65625 -10.671875 L 6.578125 -15.375 L 10.90625 -15.65625 Z M 5.6875 -7.859375 C 5.195312 -7.859375 4.851562 -7.722656 4.65625 -7.453125 C 4.46875 -7.179688 4.375 -6.664062 4.375 -5.90625 C 4.375 -4.882812 4.476562 -4.144531 4.6875 -3.6875 C 4.894531 -3.238281 5.222656 -3.015625 5.671875 -3.015625 C 6.035156 -3.015625 6.382812 -3.160156 6.71875 -3.453125 L 6.734375 -4.265625 L 6.6875 -7.625 C 6.351562 -7.78125 6.019531 -7.859375 5.6875 -7.859375 Z M 5.6875 -7.859375 "/></g></g></g><g fill="#800080" fill-opacity="1"><g transform="translate(102.744872, 23.994868)"><g><path d="M 5.75 -10.796875 C 7.125 -10.796875 8.179688 -10.515625 8.921875 -9.953125 C 9.671875 -9.398438 10.046875 -8.601562 10.046875 -7.5625 C 10.046875 -7.269531 10.015625 -6.484375 9.953125 -5.203125 C 9.890625 -4.066406 9.859375 -3.429688 9.859375 -3.296875 C 9.859375 -3.140625 9.882812 -3.019531 9.9375 -2.9375 C 9.988281 -2.863281 10.066406 -2.828125 10.171875 -2.828125 C 10.273438 -2.828125 10.398438 -2.851562 10.546875 -2.90625 L 10.828125 -2.671875 L 10.4375 -0.453125 C 9.882812 -0.0546875 9.191406 0.164062 8.359375 0.21875 C 7.929688 0.1875 7.550781 0.0390625 7.21875 -0.21875 C 6.882812 -0.488281 6.628906 -0.867188 6.453125 -1.359375 L 6.296875 -1.359375 C 5.640625 -0.597656 4.894531 -0.0625 4.0625 0.25 C 2.925781 0.226562 2.019531 -0.0859375 1.34375 -0.703125 C 0.664062 -1.316406 0.328125 -2.160156 0.328125 -3.234375 C 0.328125 -4.890625 1.1875 -5.832031 2.90625 -6.0625 L 6.0625 -6.5 L 6.0625 -6.765625 C 6.0625 -7.148438 5.984375 -7.421875 5.828125 -7.578125 C 5.671875 -7.742188 5.398438 -7.828125 5.015625 -7.828125 C 4.179688 -7.828125 3.101562 -7.472656 1.78125 -6.765625 L 1.515625 -6.9375 L 1.046875 -9.6875 C 1.734375 -10.039062 2.488281 -10.3125 3.3125 -10.5 C 4.132812 -10.695312 4.945312 -10.796875 5.75 -10.796875 Z M 4.796875 -4.421875 C 4.585938 -4.390625 4.429688 -4.3125 4.328125 -4.1875 C 4.234375 -4.0625 4.1875 -3.867188 4.1875 -3.609375 C 4.1875 -3.015625 4.460938 -2.71875 5.015625 -2.71875 C 5.378906 -2.71875 5.726562 -2.835938 6.0625 -3.078125 L 6.0625 -4.59375 Z M 4.796875 -4.421875 "/></g></g></g><g fill="#800080" fill-opacity="1"><g transform="translate(113.961653, 23.994868)"><g><path d="M 2.640625 -4.234375 C 3.285156 -4.234375 3.789062 -4.046875 4.15625 -3.671875 C 4.519531 -3.304688 4.703125 -2.789062 4.703125 -2.125 C 4.703125 -1.40625 4.5 -0.835938 4.09375 -0.421875 C 3.695312 -0.00390625 3.148438 0.203125 2.453125 0.203125 C 1.765625 0.203125 1.242188 0.0195312 0.890625 -0.34375 C 0.535156 -0.707031 0.359375 -1.234375 0.359375 -1.921875 C 0.359375 -2.628906 0.5625 -3.191406 0.96875 -3.609375 C 1.375 -4.023438 1.929688 -4.234375 2.640625 -4.234375 Z M 2.640625 -4.234375 "/></g></g></g><path fill="#800080" d="M 81.992188 37.386719 C 79.582031 37.417969 77.171875 37.441406 74.761719 37.453125 L 72.953125 37.445312 C 72.351562 37.4375 71.75 37.433594 71.144531 37.414062 C 70.542969 37.402344 69.941406 37.371094 69.339844 37.347656 C 68.738281 37.328125 68.136719 37.285156 67.535156 37.253906 L 67.59375 37.230469 C 67.460938 37.359375 67.320312 37.464844 67.171875 37.566406 C 67.023438 37.664062 66.863281 37.753906 66.699219 37.828125 C 66.375 37.980469 66.019531 38.082031 65.65625 38.113281 C 65.296875 38.152344 64.929688 38.121094 64.578125 38.035156 C 64.230469 37.945312 63.898438 37.804688 63.589844 37.632812 L 63.605469 37.605469 C 63.917969 37.769531 64.25 37.898438 64.59375 37.972656 C 64.9375 38.050781 65.296875 38.070312 65.644531 38.027344 C 65.996094 37.984375 66.335938 37.878906 66.644531 37.726562 C 66.957031 37.574219 67.246094 37.371094 67.480469 37.136719 L 67.503906 37.113281 L 67.539062 37.113281 C 68.140625 37.105469 68.742188 37.089844 69.347656 37.09375 C 69.949219 37.097656 70.550781 37.089844 71.152344 37.105469 C 71.757812 37.109375 72.359375 37.132812 72.960938 37.152344 C 73.5625 37.175781 74.164062 37.199219 74.761719 37.214844 C 77.171875 37.253906 79.582031 37.300781 81.992188 37.355469 L 81.992188 37.386719 " fill-opacity="1" fill-rule="nonzero"/><g clip-path="url(#id1)"><path fill="#800080" d="M 34.707031 37.355469 C 37.117188 37.300781 39.527344 37.253906 41.9375 37.214844 C 42.535156 37.199219 43.140625 37.175781 43.738281 37.152344 C 44.34375 37.132812 44.945312 37.109375 45.546875 37.105469 C 46.148438 37.089844 46.75 37.097656 47.355469 37.09375 C 47.957031 37.089844 48.558594 37.105469 49.160156 37.113281 L 49.195312 37.113281 L 49.21875 37.136719 C 49.453125 37.371094 49.742188 37.574219 50.054688 37.726562 C 50.363281 37.878906 50.703125 37.984375 51.054688 38.027344 C 51.402344 38.070312 51.761719 38.050781 52.105469 37.972656 C 52.449219 37.898438 52.785156 37.769531 53.09375 37.605469 L 53.109375 37.632812 C 52.804688 37.804688 52.472656 37.945312 52.121094 38.035156 C 51.773438 38.121094 51.402344 38.152344 51.042969 38.113281 C 50.679688 38.082031 50.324219 37.980469 50 37.828125 C 49.835938 37.753906 49.679688 37.664062 49.527344 37.566406 C 49.378906 37.464844 49.238281 37.359375 49.109375 37.230469 L 49.164062 37.253906 C 48.5625 37.285156 47.960938 37.328125 47.359375 37.347656 C 46.757812 37.371094 46.15625 37.402344 45.554688 37.414062 C 44.953125 37.433594 44.347656 37.4375 43.746094 37.445312 L 41.9375 37.453125 C 39.527344 37.441406 37.117188 37.417969 34.710938 37.386719 L 34.707031 37.355469 " fill-opacity="1" fill-rule="nonzero"/></g><g clip-path="url(#id2)"><path fill="#800080" d="M 60.882812 37.5 C 60.882812 37.5 60.890625 37.472656 60.90625 37.425781 C 60.925781 37.378906 60.953125 37.308594 61.003906 37.226562 C 61.058594 37.144531 61.132812 37.046875 61.253906 36.960938 C 61.378906 36.878906 61.546875 36.820312 61.75 36.832031 C 61.828125 36.839844 61.925781 36.851562 62.023438 36.882812 C 62.121094 36.910156 62.214844 36.949219 62.304688 37.003906 C 62.488281 37.105469 62.65625 37.269531 62.753906 37.484375 C 62.855469 37.695312 62.863281 37.964844 62.757812 38.191406 C 62.667969 38.414062 62.46875 38.609375 62.238281 38.714844 C 62.011719 38.824219 61.765625 38.867188 61.535156 38.875 C 61.300781 38.882812 61.074219 38.855469 60.859375 38.8125 C 60.425781 38.726562 60.066406 38.515625 59.804688 38.304688 C 59.546875 38.09375 59.371094 37.882812 59.253906 37.734375 C 59.136719 37.585938 59.074219 37.496094 59.074219 37.496094 L 59.101562 37.476562 C 59.101562 37.476562 59.171875 37.558594 59.304688 37.691406 C 59.4375 37.824219 59.636719 38.007812 59.90625 38.183594 C 60.171875 38.367188 60.515625 38.515625 60.90625 38.578125 C 61.296875 38.640625 61.75 38.625 62.089844 38.445312 C 62.257812 38.363281 62.378906 38.226562 62.457031 38.070312 C 62.53125 37.914062 62.527344 37.746094 62.472656 37.59375 C 62.410156 37.4375 62.292969 37.304688 62.15625 37.210938 C 62.089844 37.160156 62.015625 37.125 61.941406 37.09375 C 61.875 37.0625 61.800781 37.042969 61.714844 37.027344 C 61.582031 37.003906 61.4375 37.027344 61.335938 37.082031 C 61.222656 37.136719 61.140625 37.210938 61.078125 37.277344 C 60.960938 37.414062 60.914062 37.511719 60.914062 37.511719 L 60.882812 37.5 " fill-opacity="1" fill-rule="nonzero"/></g><g clip-path="url(#id3)"><path fill="#800080" d="M 55.789062 37.511719 C 55.789062 37.511719 55.738281 37.414062 55.621094 37.277344 C 55.558594 37.210938 55.476562 37.136719 55.367188 37.082031 C 55.261719 37.027344 55.117188 37.003906 54.984375 37.027344 C 54.898438 37.042969 54.824219 37.0625 54.757812 37.09375 C 54.683594 37.125 54.609375 37.160156 54.542969 37.210938 C 54.40625 37.304688 54.289062 37.4375 54.230469 37.59375 C 54.171875 37.746094 54.167969 37.914062 54.246094 38.070312 C 54.324219 38.226562 54.441406 38.363281 54.613281 38.445312 C 54.949219 38.625 55.402344 38.640625 55.792969 38.578125 C 56.183594 38.515625 56.527344 38.367188 56.792969 38.183594 C 57.0625 38.007812 57.261719 37.824219 57.394531 37.691406 C 57.527344 37.558594 57.601562 37.476562 57.601562 37.476562 L 57.625 37.496094 C 57.625 37.496094 57.566406 37.585938 57.445312 37.734375 C 57.328125 37.882812 57.152344 38.09375 56.894531 38.304688 C 56.632812 38.515625 56.273438 38.726562 55.839844 38.8125 C 55.628906 38.855469 55.402344 38.882812 55.164062 38.875 C 54.933594 38.867188 54.6875 38.824219 54.460938 38.714844 C 54.230469 38.609375 54.03125 38.414062 53.941406 38.191406 C 53.835938 37.964844 53.84375 37.695312 53.945312 37.484375 C 54.042969 37.269531 54.210938 37.105469 54.394531 37.003906 C 54.484375 36.949219 54.578125 36.910156 54.675781 36.882812 C 54.777344 36.851562 54.875 36.839844 54.953125 36.832031 C 55.152344 36.820312 55.324219 36.878906 55.445312 36.960938 C 55.566406 37.046875 55.640625 37.144531 55.695312 37.226562 C 55.746094 37.308594 55.777344 37.378906 55.792969 37.425781 C 55.808594 37.472656 55.816406 37.5 55.816406 37.5 L 55.789062 37.511719 " fill-opacity="1" fill-rule="nonzero"/></g><g clip-path="url(#id4)"><path fill="#800080" d="M 63.132812 37.214844 C 63.132812 37.214844 63.144531 37.234375 63.171875 37.273438 C 63.195312 37.3125 63.230469 37.375 63.261719 37.457031 C 63.324219 37.617188 63.375 37.871094 63.3125 38.171875 C 63.277344 38.316406 63.21875 38.476562 63.121094 38.625 C 63.027344 38.769531 62.890625 38.917969 62.734375 39.035156 C 62.421875 39.28125 61.992188 39.425781 61.558594 39.445312 C 61.453125 39.453125 61.328125 39.453125 61.230469 39.441406 C 61.132812 39.4375 61.019531 39.421875 60.914062 39.40625 C 60.703125 39.371094 60.503906 39.3125 60.316406 39.242188 C 59.945312 39.089844 59.632812 38.882812 59.402344 38.675781 C 59.285156 38.574219 59.191406 38.46875 59.105469 38.378906 C 59.023438 38.285156 58.957031 38.203125 58.90625 38.128906 C 58.804688 37.984375 58.757812 37.894531 58.757812 37.894531 L 58.785156 37.875 C 58.785156 37.875 58.859375 37.941406 58.992188 38.058594 C 59.128906 38.167969 59.316406 38.328125 59.566406 38.488281 C 59.8125 38.648438 60.105469 38.820312 60.445312 38.953125 C 60.613281 39.023438 60.792969 39.082031 60.976562 39.128906 C 61.070312 39.148438 61.15625 39.167969 61.261719 39.179688 C 61.367188 39.195312 61.449219 39.203125 61.550781 39.203125 C 61.9375 39.207031 62.328125 39.101562 62.621094 38.898438 C 62.773438 38.792969 62.890625 38.679688 62.996094 38.546875 C 63.09375 38.421875 63.160156 38.277344 63.203125 38.144531 C 63.285156 37.875 63.257812 37.628906 63.210938 37.472656 C 63.160156 37.3125 63.105469 37.230469 63.105469 37.230469 L 63.132812 37.214844 " fill-opacity="1" fill-rule="nonzero"/></g><g clip-path="url(#id5)"><path fill="#800080" d="M 53.597656 37.230469 C 53.597656 37.230469 53.539062 37.3125 53.488281 37.472656 C 53.441406 37.628906 53.414062 37.875 53.496094 38.144531 C 53.539062 38.277344 53.605469 38.421875 53.707031 38.546875 C 53.808594 38.679688 53.925781 38.792969 54.078125 38.898438 C 54.371094 39.101562 54.761719 39.207031 55.148438 39.203125 C 55.25 39.203125 55.332031 39.195312 55.4375 39.179688 C 55.542969 39.167969 55.632812 39.148438 55.722656 39.128906 C 55.90625 39.082031 56.085938 39.023438 56.253906 38.953125 C 56.59375 38.820312 56.890625 38.648438 57.132812 38.488281 C 57.382812 38.328125 57.570312 38.167969 57.707031 38.058594 C 57.839844 37.941406 57.914062 37.875 57.914062 37.875 L 57.941406 37.894531 C 57.941406 37.894531 57.894531 37.984375 57.792969 38.128906 C 57.742188 38.203125 57.675781 38.285156 57.59375 38.378906 C 57.511719 38.46875 57.414062 38.574219 57.296875 38.675781 C 57.066406 38.882812 56.757812 39.089844 56.386719 39.242188 C 56.195312 39.3125 55.996094 39.371094 55.785156 39.40625 C 55.679688 39.421875 55.566406 39.4375 55.46875 39.441406 C 55.371094 39.453125 55.246094 39.453125 55.140625 39.445312 C 54.707031 39.425781 54.277344 39.28125 53.964844 39.035156 C 53.808594 38.917969 53.671875 38.769531 53.582031 38.625 C 53.480469 38.476562 53.421875 38.316406 53.386719 38.171875 C 53.324219 37.871094 53.375 37.617188 53.4375 37.457031 C 53.472656 37.375 53.503906 37.3125 53.527344 37.273438 C 53.554688 37.234375 53.566406 37.214844 53.566406 37.214844 L 53.597656 37.230469 " fill-opacity="1" fill-rule="nonzero"/></g><g clip-path="url(#id6)"><path fill="#800080" d="M 63.097656 37.207031 C 63.761719 37.355469 64.445312 37.449219 65.113281 37.410156 C 65.441406 37.386719 65.773438 37.339844 66.066406 37.214844 C 66.363281 37.101562 66.605469 36.902344 66.769531 36.660156 L 66.816406 36.59375 L 66.894531 36.589844 C 67.410156 36.5625 67.90625 36.5625 68.414062 36.5625 L 69.921875 36.578125 L 72.941406 36.617188 C 74.953125 36.640625 76.964844 36.6875 78.976562 36.726562 L 78.976562 36.757812 L 72.941406 36.8125 L 69.925781 36.84375 L 68.417969 36.867188 C 67.917969 36.882812 67.40625 36.875 66.917969 36.894531 L 67.042969 36.824219 C 66.835938 37.125 66.515625 37.347656 66.171875 37.464844 C 65.828125 37.585938 65.46875 37.628906 65.117188 37.628906 C 64.765625 37.625 64.417969 37.582031 64.078125 37.519531 C 63.742188 37.445312 63.410156 37.359375 63.089844 37.234375 L 63.097656 37.207031 " fill-opacity="1" fill-rule="nonzero"/></g><g clip-path="url(#id7)"><path fill="#800080" d="M 53.609375 37.234375 C 53.292969 37.359375 52.957031 37.445312 52.621094 37.519531 C 52.28125 37.582031 51.933594 37.625 51.582031 37.628906 C 51.230469 37.628906 50.871094 37.585938 50.527344 37.464844 C 50.183594 37.347656 49.863281 37.125 49.65625 36.824219 L 49.78125 36.894531 C 49.292969 36.875 48.785156 36.882812 48.285156 36.867188 L 46.777344 36.84375 L 43.757812 36.8125 L 37.722656 36.757812 L 37.722656 36.726562 C 39.734375 36.6875 41.746094 36.640625 43.757812 36.617188 L 46.777344 36.578125 L 48.285156 36.5625 C 48.792969 36.5625 49.289062 36.5625 49.804688 36.589844 L 49.882812 36.59375 L 49.929688 36.660156 C 50.097656 36.902344 50.335938 37.101562 50.632812 37.214844 C 50.925781 37.339844 51.257812 37.386719 51.589844 37.410156 C 52.253906 37.449219 52.9375 37.355469 53.601562 37.207031 L 53.609375 37.234375 " fill-opacity="1" fill-rule="nonzero"/></g><g clip-path="url(#id8)"><path fill="#800080" d="M 58.351562 39.171875 L 58.832031 38.457031 C 58.832031 38.457031 58.328125 37.847656 58.449219 37.621094 C 58.570312 37.390625 59.074219 36.804688 59.074219 36.804688 C 59.074219 36.804688 58.769531 36.457031 58.351562 36.453125 C 57.929688 36.457031 57.625 36.804688 57.625 36.804688 C 57.625 36.804688 58.128906 37.390625 58.25 37.621094 C 58.371094 37.847656 57.867188 38.457031 57.867188 38.457031 L 58.351562 39.171875 " fill-opacity="1" fill-rule="nonzero"/></g><path fill="#800080" d="M 64.054688 38.816406 L 64.140625 38.183594 C 64.140625 38.183594 63.761719 38 63.554688 37.800781 C 63.582031 38.078125 63.484375 38.46875 63.484375 38.46875 L 64.054688 38.816406 " fill-opacity="1" fill-rule="nonzero"/><path fill="#800080" d="M 52.644531 38.816406 L 52.558594 38.183594 C 52.558594 38.183594 52.9375 38 53.144531 37.800781 C 53.117188 38.078125 53.214844 38.46875 53.214844 38.46875 L 52.644531 38.816406 " fill-opacity="1" fill-rule="nonzero"/><g fill="#800080" fill-opacity="1"><g transform="translate(17.396181, 31.942508)"><g><path d="M 1.238281 -2.125 L 1.238281 -2.753906 L 2.363281 -2.753906 L 2.242188 -3.503906 L 0.238281 -3.503906 L 0.238281 0 L 1.238281 0 L 1.238281 -1.625 L 2.242188 -1.625 L 2.242188 -2.125 Z M 1.238281 -2.125 "/></g></g></g><g fill="#800080" fill-opacity="1"><g transform="translate(19.90473, 31.942508)"><g><path d="M 0.238281 -3.503906 L 0.238281 0 L 1.238281 0 L 1.238281 -3.503906 Z M 0.238281 -3.503906 "/></g></g></g><g fill="#800080" fill-opacity="1"><g transform="translate(21.381189, 31.942508)"><g><path d="M 0.238281 -3.503906 L 0.238281 0 L 0.988281 0 L 0.988281 -2.101562 L 2.117188 0 L 3.238281 0 L 3.238281 -3.503906 L 2.488281 -3.503906 L 2.488281 -1.398438 L 1.367188 -3.503906 Z M 0.238281 -3.503906 "/></g></g></g><g fill="#800080" fill-opacity="1"><g transform="translate(24.859711, 31.942508)"><g><path d="M 1.613281 -3.503906 L 0.238281 -3.503906 L 0.238281 0 L 1.613281 0 C 1.863281 0 2.089844 -0.046875 2.289062 -0.148438 C 2.488281 -0.25 2.65625 -0.382812 2.800781 -0.542969 C 2.941406 -0.707031 3.046875 -0.894531 3.125 -1.105469 C 3.203125 -1.3125 3.238281 -1.527344 3.238281 -1.75 C 3.238281 -1.933594 3.207031 -2.132812 3.144531 -2.339844 C 3.078125 -2.546875 2.980469 -2.738281 2.847656 -2.910156 C 2.714844 -3.082031 2.546875 -3.21875 2.339844 -3.335938 C 2.136719 -3.445312 1.890625 -3.503906 1.613281 -3.503906 Z M 1.492188 -0.5 L 1.238281 -0.5 L 1.238281 -3 L 1.492188 -3 C 1.613281 -3 1.71875 -2.960938 1.816406 -2.890625 C 1.910156 -2.820312 1.988281 -2.722656 2.050781 -2.609375 C 2.113281 -2.488281 2.160156 -2.355469 2.191406 -2.207031 C 2.222656 -2.054688 2.242188 -1.902344 2.242188 -1.75 C 2.242188 -1.589844 2.222656 -1.4375 2.191406 -1.289062 C 2.160156 -1.136719 2.113281 -1.003906 2.050781 -0.890625 C 1.988281 -0.773438 1.910156 -0.679688 1.816406 -0.605469 C 1.71875 -0.535156 1.613281 -0.5 1.492188 -0.5 Z M 1.492188 -0.5 "/></g></g></g><g fill="#800080" fill-opacity="1"><g transform="translate(28.242669, 31.942508)"><g/></g></g><g fill="#800080" fill-opacity="1"><g transform="translate(29.676123, 31.942508)"><g><path d="M 0.238281 -3.503906 L 0.238281 0 L 0.988281 0 L 0.988281 -2.101562 L 2.117188 0 L 3.238281 0 L 3.238281 -3.503906 L 2.488281 -3.503906 L 2.488281 -1.398438 L 1.367188 -3.503906 Z M 0.238281 -3.503906 "/></g></g></g><g fill="#800080" fill-opacity="1"><g transform="translate(33.154646, 31.942508)"><g><path d="M 2.488281 -0.75 L 1.238281 -0.75 L 1.238281 -1.375 L 2.242188 -1.375 L 2.242188 -2.125 L 1.238281 -2.125 L 1.238281 -2.753906 L 2.363281 -2.753906 L 2.242188 -3.503906 L 0.238281 -3.503906 L 0.238281 0 L 2.363281 0 Z M 2.488281 -0.75 "/></g></g></g><g fill="#800080" fill-opacity="1"><g transform="translate(35.882992, 31.942508)"><g><path d="M 1.8125 -1 L 2.097656 0 L 3.097656 0 L 2.097656 -3.503906 L 1.09375 -3.503906 L 0.09375 0 L 0.847656 0 L 1.132812 -1 Z M 1.667969 -1.5 L 1.277344 -1.5 L 1.472656 -2.1875 Z M 1.667969 -1.5 "/></g></g></g><g fill="#800080" fill-opacity="1"><g transform="translate(39.074818, 31.942508)"><g><path d="M 2.992188 0 L 2.390625 -1.683594 C 2.53125 -1.757812 2.652344 -1.859375 2.738281 -1.992188 C 2.824219 -2.125 2.867188 -2.292969 2.867188 -2.503906 C 2.867188 -2.691406 2.828125 -2.847656 2.757812 -2.976562 C 2.679688 -3.101562 2.585938 -3.207031 2.460938 -3.28125 C 2.335938 -3.359375 2.1875 -3.417969 2.019531 -3.449219 C 1.855469 -3.484375 1.675781 -3.503906 1.492188 -3.503906 L 0.238281 -3.503906 L 0.238281 0 L 1.238281 0 L 1.238281 -1.5 L 1.492188 -1.5 L 1.988281 0 Z M 1.238281 -2.003906 L 1.238281 -3 C 1.34375 -3 1.433594 -2.988281 1.515625 -2.957031 C 1.597656 -2.929688 1.664062 -2.890625 1.714844 -2.84375 C 1.769531 -2.796875 1.804688 -2.742188 1.835938 -2.683594 C 1.863281 -2.625 1.878906 -2.5625 1.878906 -2.5 C 1.878906 -2.433594 1.863281 -2.371094 1.835938 -2.3125 C 1.804688 -2.253906 1.769531 -2.203125 1.714844 -2.15625 C 1.664062 -2.105469 1.597656 -2.074219 1.515625 -2.046875 C 1.433594 -2.015625 1.34375 -2.003906 1.238281 -2.003906 Z M 1.238281 -2.003906 "/></g></g></g><g fill="#800080" fill-opacity="1"><g transform="translate(42.209309, 31.942508)"><g><path d="M 2.363281 -2.125 C 2.359375 -2.125 2.371094 -2.136719 2.398438 -2.15625 C 2.421875 -2.175781 2.453125 -2.203125 2.484375 -2.242188 C 2.511719 -2.277344 2.542969 -2.332031 2.570312 -2.398438 C 2.597656 -2.460938 2.613281 -2.539062 2.613281 -2.628906 C 2.613281 -2.71875 2.59375 -2.8125 2.5625 -2.917969 C 2.523438 -3.023438 2.464844 -3.121094 2.378906 -3.207031 C 2.292969 -3.292969 2.179688 -3.359375 2.035156 -3.417969 C 1.890625 -3.472656 1.710938 -3.503906 1.492188 -3.503906 L 0.238281 -3.503906 L 0.238281 0 L 1.492188 0 C 1.710938 0 1.902344 -0.0273438 2.074219 -0.0898438 C 2.246094 -0.148438 2.390625 -0.234375 2.503906 -0.34375 C 2.617188 -0.453125 2.710938 -0.585938 2.769531 -0.742188 C 2.832031 -0.894531 2.867188 -1.0625 2.867188 -1.25 C 2.867188 -1.40625 2.839844 -1.539062 2.785156 -1.652344 C 2.734375 -1.761719 2.675781 -1.855469 2.613281 -1.925781 C 2.539062 -2.007812 2.457031 -2.074219 2.363281 -2.125 Z M 1.738281 -2.628906 C 1.738281 -2.5 1.699219 -2.402344 1.628906 -2.339844 C 1.558594 -2.277344 1.429688 -2.25 1.238281 -2.25 L 1.238281 -3 C 1.429688 -3 1.558594 -2.96875 1.628906 -2.90625 C 1.699219 -2.84375 1.738281 -2.753906 1.738281 -2.628906 Z M 1.238281 -0.5 L 1.238281 -1.75 C 1.363281 -1.75 1.460938 -1.726562 1.542969 -1.6875 C 1.625 -1.644531 1.691406 -1.589844 1.738281 -1.527344 C 1.785156 -1.46875 1.816406 -1.398438 1.835938 -1.328125 C 1.855469 -1.25 1.863281 -1.183594 1.863281 -1.128906 C 1.863281 -1.0625 1.855469 -0.992188 1.835938 -0.921875 C 1.816406 -0.847656 1.785156 -0.777344 1.738281 -0.714844 C 1.691406 -0.65625 1.625 -0.601562 1.542969 -0.5625 C 1.460938 -0.519531 1.363281 -0.5 1.238281 -0.5 Z M 1.238281 -0.5 "/></g></g></g><g fill="#800080" fill-opacity="1"><g transform="translate(45.219568, 31.942508)"><g><path d="M 3.144531 -3.503906 L 2.394531 -3.503906 C 2.390625 -3.492188 2.390625 -3.492188 2.394531 -3.496094 C 2.394531 -3.503906 2.394531 -3.503906 2.390625 -3.492188 C 2.382812 -3.484375 2.375 -3.453125 2.355469 -3.417969 C 2.335938 -3.378906 2.308594 -3.3125 2.269531 -3.214844 C 2.230469 -3.121094 2.175781 -2.988281 2.101562 -2.824219 C 2.03125 -2.65625 1.941406 -2.441406 1.828125 -2.183594 C 1.714844 -2.441406 1.625 -2.65625 1.558594 -2.824219 C 1.484375 -2.988281 1.429688 -3.121094 1.390625 -3.214844 C 1.347656 -3.3125 1.320312 -3.378906 1.304688 -3.417969 C 1.285156 -3.453125 1.277344 -3.484375 1.269531 -3.492188 C 1.265625 -3.503906 1.265625 -3.503906 1.269531 -3.496094 C 1.269531 -3.492188 1.269531 -3.492188 1.269531 -3.503906 L 0.144531 -3.503906 L 1.140625 -1.15625 L 1.140625 0 L 2.144531 0 L 2.144531 -1.15625 Z M 3.144531 -3.503906 "/></g></g></g><g fill="#800080" fill-opacity="1"><g transform="translate(48.506961, 31.942508)"><g/></g></g><g fill="#800080" fill-opacity="1"><g transform="translate(49.940415, 31.942508)"><g><path d="M 3.238281 -3.503906 L 2.242188 -3.503906 L 2.242188 -2.125 L 1.238281 -2.125 L 1.238281 -3.503906 L 0.238281 -3.503906 L 0.238281 0 L 1.238281 0 L 1.238281 -1.625 L 2.242188 -1.625 L 2.242188 0 L 3.238281 0 Z M 3.238281 -3.503906 "/></g></g></g><g fill="#800080" fill-opacity="1"><g transform="translate(53.418938, 31.942508)"><g><path d="M 1.742188 -3.617188 C 1.476562 -3.617188 1.242188 -3.558594 1.042969 -3.453125 C 0.839844 -3.347656 0.679688 -3.207031 0.542969 -3.035156 C 0.410156 -2.855469 0.3125 -2.65625 0.242188 -2.4375 C 0.175781 -2.210938 0.144531 -1.984375 0.144531 -1.753906 C 0.144531 -1.515625 0.175781 -1.285156 0.242188 -1.066406 C 0.3125 -0.839844 0.410156 -0.640625 0.542969 -0.46875 C 0.679688 -0.292969 0.839844 -0.148438 1.042969 -0.0429688 C 1.242188 0.0625 1.476562 0.113281 1.742188 0.113281 C 2.011719 0.113281 2.242188 0.0625 2.441406 -0.0429688 C 2.640625 -0.148438 2.808594 -0.292969 2.941406 -0.46875 C 3.078125 -0.640625 3.175781 -0.839844 3.246094 -1.066406 C 3.3125 -1.285156 3.34375 -1.515625 3.34375 -1.753906 C 3.34375 -1.984375 3.3125 -2.210938 3.246094 -2.4375 C 3.175781 -2.65625 3.078125 -2.855469 2.941406 -3.035156 C 2.808594 -3.207031 2.640625 -3.347656 2.441406 -3.453125 C 2.242188 -3.558594 2.011719 -3.617188 1.742188 -3.617188 Z M 1.742188 -0.421875 C 1.675781 -0.421875 1.609375 -0.445312 1.546875 -0.496094 C 1.480469 -0.542969 1.425781 -0.625 1.375 -0.734375 C 1.324219 -0.839844 1.28125 -0.980469 1.25 -1.148438 C 1.222656 -1.3125 1.207031 -1.515625 1.207031 -1.753906 C 1.207031 -1.984375 1.222656 -2.183594 1.25 -2.355469 C 1.28125 -2.523438 1.324219 -2.660156 1.375 -2.769531 C 1.425781 -2.875 1.480469 -2.957031 1.546875 -3.011719 C 1.609375 -3.058594 1.675781 -3.085938 1.742188 -3.085938 C 1.8125 -3.085938 1.871094 -3.058594 1.941406 -3.011719 C 2.003906 -2.957031 2.058594 -2.875 2.113281 -2.769531 C 2.160156 -2.660156 2.203125 -2.523438 2.230469 -2.355469 C 2.261719 -2.183594 2.277344 -1.984375 2.277344 -1.753906 C 2.277344 -1.515625 2.261719 -1.3125 2.230469 -1.148438 C 2.203125 -0.980469 2.160156 -0.839844 2.113281 -0.734375 C 2.058594 -0.625 2.003906 -0.542969 1.941406 -0.496094 C 1.871094 -0.445312 1.8125 -0.421875 1.742188 -0.421875 Z M 1.742188 -0.421875 "/></g></g></g><g fill="#800080" fill-opacity="1"><g transform="translate(56.907011, 31.942508)"><g><path d="M 3.988281 -3.503906 L 2.742188 -3.503906 L 2.117188 -1.3125 L 1.492188 -3.503906 L 0.238281 -3.503906 L 0.238281 0 L 0.988281 0 L 0.988281 -1.75 L 1.492188 0 L 2.488281 0 L 2.992188 -1.75 L 2.992188 0 L 3.988281 0 Z M 3.988281 -3.503906 "/></g></g></g><g fill="#800080" fill-opacity="1"><g transform="translate(61.135705, 31.942508)"><g><path d="M 2.488281 -0.75 L 1.238281 -0.75 L 1.238281 -1.375 L 2.242188 -1.375 L 2.242188 -2.125 L 1.238281 -2.125 L 1.238281 -2.753906 L 2.363281 -2.753906 L 2.242188 -3.503906 L 0.238281 -3.503906 L 0.238281 0 L 2.363281 0 Z M 2.488281 -0.75 "/></g></g></g><g fill="#800080" fill-opacity="1"><g transform="translate(63.864051, 31.942508)"><g/></g></g><g fill="#800080" fill-opacity="1"><g transform="translate(65.297505, 31.942508)"><g><path d="M 1.972656 -2.753906 L 2.847656 -2.753906 L 2.722656 -3.503906 L 0.21875 -3.503906 L 0.09375 -2.753906 L 0.96875 -2.753906 L 0.96875 0 L 1.972656 0 Z M 1.972656 -2.753906 "/></g></g></g><g fill="#800080" fill-opacity="1"><g transform="translate(68.240871, 31.942508)"><g><path d="M 3.144531 -3.503906 L 2.144531 -3.503906 L 2.144531 -1.75 C 2.144531 -1.308594 2.105469 -0.992188 2.035156 -0.796875 C 1.960938 -0.597656 1.828125 -0.5 1.644531 -0.5 C 1.546875 -0.5 1.472656 -0.527344 1.410156 -0.574219 C 1.34375 -0.621094 1.289062 -0.691406 1.25 -0.796875 C 1.214844 -0.898438 1.183594 -1.027344 1.164062 -1.183594 C 1.148438 -1.335938 1.140625 -1.527344 1.140625 -1.75 L 1.140625 -3.503906 L 0.144531 -3.503906 L 0.144531 -1.75 C 0.144531 -1.527344 0.167969 -1.3125 0.21875 -1.105469 C 0.265625 -0.894531 0.355469 -0.707031 0.472656 -0.542969 C 0.585938 -0.382812 0.746094 -0.25 0.9375 -0.148438 C 1.128906 -0.046875 1.363281 0 1.644531 0 C 1.921875 0 2.160156 -0.046875 2.351562 -0.148438 C 2.542969 -0.25 2.699219 -0.382812 2.8125 -0.542969 C 2.929688 -0.707031 3.015625 -0.894531 3.066406 -1.105469 C 3.117188 -1.3125 3.144531 -1.527344 3.144531 -1.75 Z M 3.144531 -3.503906 "/></g></g></g><g fill="#800080" fill-opacity="1"><g transform="translate(71.528263, 31.942508)"><g><path d="M 1.972656 -2.753906 L 2.847656 -2.753906 L 2.722656 -3.503906 L 0.21875 -3.503906 L 0.09375 -2.753906 L 0.96875 -2.753906 L 0.96875 0 L 1.972656 0 Z M 1.972656 -2.753906 "/></g></g></g><g fill="#800080" fill-opacity="1"><g transform="translate(74.471629, 31.942508)"><g><path d="M 1.742188 -3.617188 C 1.476562 -3.617188 1.242188 -3.558594 1.042969 -3.453125 C 0.839844 -3.347656 0.679688 -3.207031 0.542969 -3.035156 C 0.410156 -2.855469 0.3125 -2.65625 0.242188 -2.4375 C 0.175781 -2.210938 0.144531 -1.984375 0.144531 -1.753906 C 0.144531 -1.515625 0.175781 -1.285156 0.242188 -1.066406 C 0.3125 -0.839844 0.410156 -0.640625 0.542969 -0.46875 C 0.679688 -0.292969 0.839844 -0.148438 1.042969 -0.0429688 C 1.242188 0.0625 1.476562 0.113281 1.742188 0.113281 C 2.011719 0.113281 2.242188 0.0625 2.441406 -0.0429688 C 2.640625 -0.148438 2.808594 -0.292969 2.941406 -0.46875 C 3.078125 -0.640625 3.175781 -0.839844 3.246094 -1.066406 C 3.3125 -1.285156 3.34375 -1.515625 3.34375 -1.753906 C 3.34375 -1.984375 3.3125 -2.210938 3.246094 -2.4375 C 3.175781 -2.65625 3.078125 -2.855469 2.941406 -3.035156 C 2.808594 -3.207031 2.640625 -3.347656 2.441406 -3.453125 C 2.242188 -3.558594 2.011719 -3.617188 1.742188 -3.617188 Z M 1.742188 -0.421875 C 1.675781 -0.421875 1.609375 -0.445312 1.546875 -0.496094 C 1.480469 -0.542969 1.425781 -0.625 1.375 -0.734375 C 1.324219 -0.839844 1.28125 -0.980469 1.25 -1.148438 C 1.222656 -1.3125 1.207031 -1.515625 1.207031 -1.753906 C 1.207031 -1.984375 1.222656 -2.183594 1.25 -2.355469 C 1.28125 -2.523438 1.324219 -2.660156 1.375 -2.769531 C 1.425781 -2.875 1.480469 -2.957031 1.546875 -3.011719 C 1.609375 -3.058594 1.675781 -3.085938 1.742188 -3.085938 C 1.8125 -3.085938 1.871094 -3.058594 1.941406 -3.011719 C 2.003906 -2.957031 2.058594 -2.875 2.113281 -2.769531 C 2.160156 -2.660156 2.203125 -2.523438 2.230469 -2.355469 C 2.261719 -2.183594 2.277344 -1.984375 2.277344 -1.753906 C 2.277344 -1.515625 2.261719 -1.3125 2.230469 -1.148438 C 2.203125 -0.980469 2.160156 -0.839844 2.113281 -0.734375 C 2.058594 -0.625 2.003906 -0.542969 1.941406 -0.496094 C 1.871094 -0.445312 1.8125 -0.421875 1.742188 -0.421875 Z M 1.742188 -0.421875 "/></g></g></g><g fill="#800080" fill-opacity="1"><g transform="translate(77.959703, 31.942508)"><g><path d="M 2.992188 0 L 2.390625 -1.683594 C 2.53125 -1.757812 2.652344 -1.859375 2.738281 -1.992188 C 2.824219 -2.125 2.867188 -2.292969 2.867188 -2.503906 C 2.867188 -2.691406 2.828125 -2.847656 2.757812 -2.976562 C 2.679688 -3.101562 2.585938 -3.207031 2.460938 -3.28125 C 2.335938 -3.359375 2.1875 -3.417969 2.019531 -3.449219 C 1.855469 -3.484375 1.675781 -3.503906 1.492188 -3.503906 L 0.238281 -3.503906 L 0.238281 0 L 1.238281 0 L 1.238281 -1.5 L 1.492188 -1.5 L 1.988281 0 Z M 1.238281 -2.003906 L 1.238281 -3 C 1.34375 -3 1.433594 -2.988281 1.515625 -2.957031 C 1.597656 -2.929688 1.664062 -2.890625 1.714844 -2.84375 C 1.769531 -2.796875 1.804688 -2.742188 1.835938 -2.683594 C 1.863281 -2.625 1.878906 -2.5625 1.878906 -2.5 C 1.878906 -2.433594 1.863281 -2.371094 1.835938 -2.3125 C 1.804688 -2.253906 1.769531 -2.203125 1.714844 -2.15625 C 1.664062 -2.105469 1.597656 -2.074219 1.515625 -2.046875 C 1.433594 -2.015625 1.34375 -2.003906 1.238281 -2.003906 Z M 1.238281 -2.003906 "/></g></g></g><g fill="#800080" fill-opacity="1"><g transform="translate(81.094193, 31.942508)"><g><path d="M 1.890625 -0.75 C 1.890625 -0.683594 1.859375 -0.625 1.796875 -0.578125 C 1.734375 -0.527344 1.644531 -0.5 1.519531 -0.5 C 1.414062 -0.5 1.308594 -0.519531 1.214844 -0.570312 C 1.117188 -0.613281 1.027344 -0.664062 0.945312 -0.730469 C 0.859375 -0.796875 0.789062 -0.871094 0.722656 -0.945312 C 0.65625 -1.023438 0.597656 -1.097656 0.554688 -1.164062 L 0.144531 -0.75 C 0.257812 -0.605469 0.371094 -0.492188 0.488281 -0.398438 C 0.601562 -0.300781 0.722656 -0.222656 0.847656 -0.167969 C 0.964844 -0.105469 1.089844 -0.0625 1.222656 -0.0390625 C 1.355469 -0.0078125 1.496094 0 1.644531 0 C 1.863281 0 2.050781 -0.0351562 2.207031 -0.101562 C 2.363281 -0.167969 2.496094 -0.253906 2.597656 -0.359375 C 2.699219 -0.457031 2.777344 -0.570312 2.824219 -0.683594 C 2.871094 -0.796875 2.894531 -0.902344 2.894531 -1 C 2.894531 -1.183594 2.851562 -1.347656 2.765625 -1.484375 C 2.679688 -1.625 2.570312 -1.742188 2.441406 -1.847656 C 2.308594 -1.953125 2.167969 -2.046875 2.015625 -2.125 C 1.863281 -2.203125 1.726562 -2.277344 1.597656 -2.347656 C 1.460938 -2.414062 1.355469 -2.476562 1.269531 -2.542969 C 1.183594 -2.605469 1.140625 -2.675781 1.140625 -2.753906 C 1.140625 -2.8125 1.171875 -2.871094 1.238281 -2.925781 C 1.300781 -2.972656 1.394531 -3 1.519531 -3 C 1.625 -3 1.726562 -2.976562 1.820312 -2.933594 C 1.917969 -2.886719 2.007812 -2.832031 2.09375 -2.765625 C 2.175781 -2.699219 2.25 -2.628906 2.316406 -2.550781 C 2.382812 -2.476562 2.4375 -2.402344 2.484375 -2.335938 L 2.894531 -2.753906 C 2.667969 -3.023438 2.433594 -3.214844 2.191406 -3.332031 C 1.953125 -3.445312 1.6875 -3.503906 1.394531 -3.503906 C 1.175781 -3.503906 0.984375 -3.464844 0.828125 -3.398438 C 0.667969 -3.332031 0.539062 -3.246094 0.441406 -3.144531 C 0.335938 -3.039062 0.261719 -2.929688 0.214844 -2.8125 C 0.167969 -2.699219 0.144531 -2.59375 0.144531 -2.503906 C 0.144531 -2.3125 0.1875 -2.148438 0.273438 -2.011719 C 0.359375 -1.871094 0.464844 -1.753906 0.597656 -1.648438 C 0.726562 -1.542969 0.863281 -1.453125 1.019531 -1.375 C 1.171875 -1.292969 1.308594 -1.222656 1.4375 -1.15625 C 1.566406 -1.089844 1.675781 -1.023438 1.761719 -0.960938 C 1.847656 -0.894531 1.890625 -0.828125 1.890625 -0.75 Z M 1.890625 -0.75 "/></g></g></g><g fill="#800080" fill-opacity="1"><g transform="translate(84.133118, 31.942508)"><g/></g></g><g fill="#800080" fill-opacity="1"><g transform="translate(85.566572, 31.942508)"><g><path d="M 1.742188 -3.617188 C 1.476562 -3.617188 1.242188 -3.558594 1.042969 -3.453125 C 0.839844 -3.347656 0.679688 -3.207031 0.542969 -3.035156 C 0.410156 -2.855469 0.3125 -2.65625 0.242188 -2.4375 C 0.175781 -2.210938 0.144531 -1.984375 0.144531 -1.753906 C 0.144531 -1.515625 0.175781 -1.285156 0.242188 -1.066406 C 0.3125 -0.839844 0.410156 -0.640625 0.542969 -0.46875 C 0.679688 -0.292969 0.839844 -0.148438 1.042969 -0.0429688 C 1.242188 0.0625 1.476562 0.113281 1.742188 0.113281 C 2.011719 0.113281 2.242188 0.0625 2.441406 -0.0429688 C 2.640625 -0.148438 2.808594 -0.292969 2.941406 -0.46875 C 3.078125 -0.640625 3.175781 -0.839844 3.246094 -1.066406 C 3.3125 -1.285156 3.34375 -1.515625 3.34375 -1.753906 C 3.34375 -1.984375 3.3125 -2.210938 3.246094 -2.4375 C 3.175781 -2.65625 3.078125 -2.855469 2.941406 -3.035156 C 2.808594 -3.207031 2.640625 -3.347656 2.441406 -3.453125 C 2.242188 -3.558594 2.011719 -3.617188 1.742188 -3.617188 Z M 1.742188 -0.421875 C 1.675781 -0.421875 1.609375 -0.445312 1.546875 -0.496094 C 1.480469 -0.542969 1.425781 -0.625 1.375 -0.734375 C 1.324219 -0.839844 1.28125 -0.980469 1.25 -1.148438 C 1.222656 -1.3125 1.207031 -1.515625 1.207031 -1.753906 C 1.207031 -1.984375 1.222656 -2.183594 1.25 -2.355469 C 1.28125 -2.523438 1.324219 -2.660156 1.375 -2.769531 C 1.425781 -2.875 1.480469 -2.957031 1.546875 -3.011719 C 1.609375 -3.058594 1.675781 -3.085938 1.742188 -3.085938 C 1.8125 -3.085938 1.871094 -3.058594 1.941406 -3.011719 C 2.003906 -2.957031 2.058594 -2.875 2.113281 -2.769531 C 2.160156 -2.660156 2.203125 -2.523438 2.230469 -2.355469 C 2.261719 -2.183594 2.277344 -1.984375 2.277344 -1.753906 C 2.277344 -1.515625 2.261719 -1.3125 2.230469 -1.148438 C 2.203125 -0.980469 2.160156 -0.839844 2.113281 -0.734375 C 2.058594 -0.625 2.003906 -0.542969 1.941406 -0.496094 C 1.871094 -0.445312 1.8125 -0.421875 1.742188 -0.421875 Z M 1.742188 -0.421875 "/></g></g></g><g fill="#800080" fill-opacity="1"><g transform="translate(89.054646, 31.942508)"><g><path d="M 0.238281 -3.503906 L 0.238281 0 L 0.988281 0 L 0.988281 -2.101562 L 2.117188 0 L 3.238281 0 L 3.238281 -3.503906 L 2.488281 -3.503906 L 2.488281 -1.398438 L 1.367188 -3.503906 Z M 0.238281 -3.503906 "/></g></g></g><g fill="#800080" fill-opacity="1"><g transform="translate(92.533169, 31.942508)"><g><path d="M 2.363281 0 L 2.242188 -0.75 L 1.238281 -0.75 L 1.238281 -3.503906 L 0.238281 -3.503906 L 0.238281 0 Z M 2.363281 0 "/></g></g></g><g fill="#800080" fill-opacity="1"><g transform="translate(94.993933, 31.942508)"><g><path d="M 0.238281 -3.503906 L 0.238281 0 L 1.238281 0 L 1.238281 -3.503906 Z M 0.238281 -3.503906 "/></g></g></g><g fill="#800080" fill-opacity="1"><g transform="translate(96.470391, 31.942508)"><g><path d="M 0.238281 -3.503906 L 0.238281 0 L 0.988281 0 L 0.988281 -2.101562 L 2.117188 0 L 3.238281 0 L 3.238281 -3.503906 L 2.488281 -3.503906 L 2.488281 -1.398438 L 1.367188 -3.503906 Z M 0.238281 -3.503906 "/></g></g></g><g fill="#800080" fill-opacity="1"><g transform="translate(99.948914, 31.942508)"><g><path d="M 2.488281 -0.75 L 1.238281 -0.75 L 1.238281 -1.375 L 2.242188 -1.375 L 2.242188 -2.125 L 1.238281 -2.125 L 1.238281 -2.753906 L 2.363281 -2.753906 L 2.242188 -3.503906 L 0.238281 -3.503906 L 0.238281 0 L 2.363281 0 Z M 2.488281 -0.75 "/></g></g></g></svg>